<mxfile host="app.diagrams.net" modified="2023-05-15T01:29:31.591Z" agent="Mozilla/5.0 (Windows NT 10.0; Win64; x64) AppleWebKit/537.36 (KHTML, like Gecko) Chrome/113.0.5636.222 Safari/537.36" version="21.2.9" etag="ZWzXL_xu0W0srIHfxZgm" type="github">
  <diagram name="Halaman-1" id="Yk4Eldq8DXgN2chc1znD">
    <mxGraphModel>
      <root>
        <mxCell id="0" />
        <mxCell id="1" parent="0" />
      </root>
    </mxGraphModel>
  </diagram>
</mxfile>
